<svg xmlns="http://www.w3.org/2000/svg" xml:space="preserve" width="2000" height="1500" data-id="lg_RwI92QOVUbDSs3K0jW" data-version="1" viewBox="0 0 2000 1500"><path fill="#111" stroke="transparent" d="M0 0h2000v1500H0z"/><g data-padding="20"><g transform="translate(-1647.059 -1245.196)scale(2.57847)"><path fill="#fff" d="M837.347 667.38c-48.852 3.455-87.88 42.483-91.334 91.335-.27 3.812 2.74 7.058 6.56 7.058h85.257a6.577 6.577 0 0 0 6.577-6.577v-85.254c0-3.821-3.246-6.83-7.058-6.56Zm121.742 91.913c-3.454-48.852-42.482-87.88-91.334-91.334-3.812-.27-7.058 2.74-7.058 6.56v85.257a6.577 6.577 0 0 0 6.577 6.577h85.254c3.82 0 6.829-3.246 6.56-7.058Zm-9.322 20.828c-48.852 3.454-87.88 42.482-91.334 91.334-.27 3.812 2.74 7.058 6.56 7.058h85.257a6.577 6.577 0 0 0 6.577-6.577v-85.254c0-3.821-3.246-6.83-7.058-6.56Zm-203.752 8.742c3.454 48.852 42.482 87.88 91.334 91.334 3.812.27 7.058-2.74 7.058-6.561V788.38a6.577 6.577 0 0 0-6.577-6.577h-85.254c-3.821 0-6.83 3.246-6.56 7.058Z"/><rect width="328.684" height="82.49" x="461.3" y="332.543" fill="none" rx="0" ry="0" transform="translate(516.16 447.12)"/><path fill="#fff" d="M1007.822 844.558q-5.47 0-10.33-1.9-4.85-1.89-8.57-5.51-3.73-3.61-5.88-8.72t-2.15-11.53q0-6.5 2.15-11.61t5.91-8.69 8.62-5.44q4.85-1.86 10.25-1.86 5.41 0 10.26 1.86 4.86 1.86 8.61 5.44 3.76 3.58 5.92 8.69 2.15 5.11 2.15 11.61 0 8.1-3.36 14.08-3.35 5.99-8.83 9.42l6.64 10.29h-8.1l-4.82-7.37q-4.09 1.24-8.47 1.24m0-7.37q2.19 0 4.24-.44l-4.89-7.96h8.17l3.14 5.11q3.43-2.48 5.51-6.75t2.08-10.18q0-6.64-2.48-11.13t-6.6-6.79q-4.13-2.3-9.17-2.3-5.03 0-9.16 2.3-4.12 2.3-6.6 6.79-2.49 4.49-2.49 11.13 0 6.57 2.56 11.06 2.55 4.49 6.72 6.82 4.16 2.34 8.97 2.34m54.55 7.38q-7.01 0-11.21-2.84-4.2-2.85-6.06-8.18t-1.86-12.63v-30.73h8.18v30.88q0 8.54 2.59 12.22 2.59 3.69 8.36 3.69 5.76 0 8.32-3.58 2.55-3.57 2.55-12.33v-30.88h8.25v30.73q0 11.24-4.67 17.45-4.67 6.2-14.45 6.2m22.98-.74 25.7-53.73h.8l25.84 53.73h-9.42l-4.59-10.51h-24.61l-4.59 10.51Zm26.21-38.18h-.15l-3.21 7.3-5.84 13h18.1l-5.76-12.92Zm71.1 38.18h-1.1l-31.39-34.75.22 5.84v28.91h-8.17v-53.73h1.02l31.54 35.19-.3-6.13v-28.98h8.18Zm29.71 0h-8.1v-46.5h-13.73v-7.15h35.7v7.15h-13.87Zm30.88 0h-8.18v-53.65h8.18Zm37.01.73q-5.47 0-10.33-1.9-4.85-1.89-8.58-5.51-3.72-3.61-5.87-8.72-2.16-5.11-2.16-11.53 0-6.5 2.16-11.61 2.15-5.11 5.91-8.69t8.61-5.44q4.86-1.86 10.26-1.86t10.26 1.86q4.85 1.86 8.61 5.44t5.91 8.69q2.16 5.11 2.16 11.61 0 8.1-3.36 14.08-3.36 5.99-8.83 9.42l6.64 10.29h-8.1l-4.82-7.37q-4.09 1.24-8.47 1.24m0-7.37q2.19 0 4.23-.44l-4.89-7.96h8.18l3.14 5.11q3.43-2.48 5.51-6.75t2.08-10.18q0-6.64-2.48-11.13t-6.61-6.79q-4.12-2.3-9.16-2.3t-9.16 2.3q-4.13 2.3-6.61 6.79t-2.48 11.13q0 6.57 2.56 11.06 2.55 4.49 6.71 6.82 4.16 2.34 8.98 2.34"/></g><path fill="transparent" stroke="transparent" stroke-width="2.674" d="M250 465.24h1500v569.52H250z"/></g></svg>